<?xml version="1.0" encoding="UTF-8"?>
<svg height="128px" viewBox="0 0 128 128" width="128px" xmlns="http://www.w3.org/2000/svg" xmlns:xlink="http://www.w3.org/1999/xlink">
    <linearGradient id="a" gradientTransform="matrix(0.681998 -0.731354 0.731354 0.681998 -29.411781 38.130228)" gradientUnits="userSpaceOnUse" x1="24.172001" x2="53.839901" y1="104.436996" y2="147.322006">
        <stop offset="0.92" stop-color="#986a44"/>
        <stop offset="0.96" stop-color="#b5835a"/>
        <stop offset="1" stop-color="#cdab8f"/>
    </linearGradient>
    <linearGradient id="b" gradientTransform="matrix(0.681998 0.731354 -0.731354 0.681998 46.080275 -40.078065)" gradientUnits="userSpaceOnUse" x1="73.917503" x2="108.675003" y1="113.275002" y2="75.268898">
        <stop offset="0" stop-color="#cdab8f"/>
        <stop offset="0.02" stop-color="#b5835a"/>
        <stop offset="0.08" stop-color="#986a44"/>
    </linearGradient>
    <path d="m 40.953125 44.367188 c 7.25 -7.777344 19.433594 -8.203126 27.210937 -0.949219 l 41.929688 39.097656 c 7.777344 7.25 8.203125 19.433594 0.949219 27.210937 c -7.253907 7.777344 -19.4375 8.203126 -27.214844 0.953126 l -41.925781 -39.097657 c -7.777344 -7.253906 -8.203125 -19.4375 -0.949219 -27.214843 z m 0 0" fill="url(#a)"/>
    <path d="m 87.226562 44.203125 c 7.253907 7.777344 6.828126 19.960937 -0.949218 27.214844 l -42.101563 39.261719 c -7.777343 7.25 -19.960937 6.824218 -27.214843 -0.953126 c -7.253907 -7.777343 -6.828126 -19.960937 0.949218 -27.210937 l 42.105469 -39.261719 c 7.773437 -7.253906 19.960937 -6.828125 27.210937 0.949219 z m 0 0" fill="url(#b)"/>
    <path d="m 111.042969 16.996094 c 7.253906 7.777344 6.828125 19.960937 -0.949219 27.210937 l -65.917969 61.472657 c -7.777343 7.25 -19.960937 6.824218 -27.214843 -0.953126 c -7.253907 -7.777343 -6.828126 -19.960937 0.949218 -27.210937 l 65.917969 -61.472656 c 7.777344 -7.25 19.960937 -6.824219 27.214844 0.953125 z m 0 0" fill="#b5835a"/>
    <path d="m 16.960938 16.996094 c 7.253906 -7.777344 19.4375 -8.203125 27.214843 -0.953125 l 65.917969 61.472656 c 7.777344 7.25 8.203125 19.433594 0.949219 27.210937 c -7.253907 7.777344 -19.4375 8.203126 -27.214844 0.953126 l -65.917969 -61.472657 c -7.777344 -7.25 -8.203125 -19.433593 -0.949218 -27.210937 z m 0 0" fill="#b5835a"/>
    <g fill="#63452c">
        <path d="m 44.84375 63.96875 l 24.863281 -23.1875 c 1.214844 -1.128906 3.109375 -1.0625 4.242188 0.148438 l 9.546875 10.238281 c 1.128906 1.210937 1.0625 3.109375 -0.148438 4.238281 l -24.867187 23.191406 c -1.210938 1.128906 -3.109375 1.0625 -4.238281 -0.148437 l -9.546876 -10.242188 c -1.132812 -1.210937 -1.066406 -3.109375 0.148438 -4.238281 z m 0 0"/>
        <path d="m 60.117188 40.894531 l 23.621093 24.457031 c 1.148438 1.191407 1.117188 3.089844 -0.074219 4.242188 l -10.070312 9.722656 c -1.191406 1.152344 -3.09375 1.117188 -4.242188 -0.074218 l -23.621093 -24.457032 c -1.148438 -1.191406 -1.117188 -3.089844 0.074219 -4.242187 l 10.070312 -9.722657 c 1.195312 -1.152343 3.09375 -1.121093 4.242188 0.074219 z m 0 0"/>
    </g>
</svg>
