<?xml version="1.0" encoding="UTF-8"?>
<svg width="16px" height="16px" version="1.1" viewBox="0 0 16 16" xmlns="http://www.w3.org/2000/svg">
    <filter id="a" x="0" y="0" width="1" height="1">
        <feColorMatrix color-interpolation-filters="sRGB" values="0 0 0 0 1 0 0 0 0 1 0 0 0 0 1 0 0 0 1 0"/>
    </filter>
    <mask id="b">
        <g filter="url(#a)">
            <rect x="-1.6" y="-1.6" width="19.2" height="19.2" fill-opacity=".3448"/>
        </g>
    </mask>
    <clipPath id="c">
        <rect width="192" height="152"/>
    </clipPath>
    <path d="m13.494 0.91406c-1.125-1.125-2.9727-1.125-4.0977 0l-8.4844 8.4844c-1.125 1.1211-1.125 2.9727 0 4.0938l1.5938 1.5938c1.125 1.125 2.9727 1.125 4.0977 0l8.4844-8.4844c1.125-1.1211 1.125-2.9727 0-4.0938zm0 0c-1.125-1.125-2.9727-1.125-4.0977 0l-8.4844 8.4844c-1.125 1.1211-1.125 2.9727 0 4.0938l1.5938 1.5938c1.125 1.125 2.9727 1.125 4.0977 0l8.4844-8.4844c1.125-1.1211 1.125-2.9727 0-4.0938zm0 0c-1.125-1.125-2.9727-1.125-4.0977 0l-8.4844 8.4844c-1.125 1.1211-1.125 2.9727 0 4.0938l1.5938 1.5938c1.125 1.125 2.9727 1.125 4.0977 0l8.4844-8.4844c1.125-1.1211 1.125-2.9727 0-4.0938zm0 0c-1.125-1.125-2.9727-1.125-4.0977 0l-8.4844 8.4844c-1.125 1.1211-1.125 2.9727 0 4.0938l1.5938 1.5938c1.125 1.125 2.9727 1.125 4.0977 0l8.4844-8.4844c1.125-1.1211 1.125-2.9727 0-4.0938zm0.0059 0c-1.125-1.125-2.9727-1.125-4.0977 0l-8.4844 8.4844c-1.125 1.1211-1.125 2.9727 0 4.0938l1.5938 1.5938c1.125 1.125 2.9727 1.125 4.0977 0l8.4844-8.4844c1.125-1.1211 1.125-2.9727 0-4.0938zm0 0c-1.125-1.125-2.9727-1.125-4.0977 0l-8.4844 8.4844c-1.125 1.1211-1.125 2.9727 0 4.0938l1.5938 1.5938c1.125 1.125 2.9727 1.125 4.0977 0l8.4844-8.4844c1.125-1.1211 1.125-2.9727 0-4.0938zm0 0c-1.125-1.125-2.9727-1.125-4.0977 0l-8.4844 8.4844c-1.125 1.1211-1.125 2.9727 0 4.0938l1.5938 1.5938c1.125 1.125 2.9727 1.125 4.0977 0l8.4844-8.4844c1.125-1.1211 1.125-2.9727 0-4.0938zm0 0c-1.125-1.125-2.9727-1.125-4.0977 0l-8.4844 8.4844c-1.125 1.1211-1.125 2.9727 0 4.0938l1.5938 1.5938c1.125 1.125 2.9727 1.125 4.0977 0l8.4844-8.4844c1.125-1.1211 1.125-2.9727 0-4.0938z" fill="#241f31" stop-color="#000000" style="-inkscape-stroke:none;font-variation-settings:normal"/>
    <path d="m2.5117 0.91406c1.125-1.125 2.9727-1.125 4.0977 0l8.4844 8.4844c1.125 1.1211 1.125 2.9727 0 4.0938l-1.5938 1.5938c-1.125 1.125-2.9727 1.125-4.0977 0l-8.4844-8.4844c-1.125-1.1211-1.125-2.9727 0-4.0938zm0 0c1.125-1.125 2.9727-1.125 4.0977 0l8.4844 8.4844c1.125 1.1211 1.125 2.9727 0 4.0938l-1.5938 1.5938c-1.125 1.125-2.9727 1.125-4.0977 0l-8.4844-8.4844c-1.125-1.1211-1.125-2.9727 0-4.0938zm0 0c1.125-1.125 2.9727-1.125 4.0977 0l8.4844 8.4844c1.125 1.1211 1.125 2.9727 0 4.0938l-1.5938 1.5938c-1.125 1.125-2.9727 1.125-4.0977 0l-8.4844-8.4844c-1.125-1.1211-1.125-2.9727 0-4.0938zm0 0c1.125-1.125 2.9727-1.125 4.0977 0l8.4844 8.4844c1.125 1.1211 1.125 2.9727 0 4.0938l-1.5938 1.5938c-1.125 1.125-2.9727 1.125-4.0977 0l-8.4844-8.4844c-1.125-1.1211-1.125-2.9727 0-4.0938zm-0.00586 0c1.125-1.125 2.9727-1.125 4.0977 0l8.4844 8.4844c1.125 1.1211 1.125 2.9727 0 4.0938l-1.5938 1.5938c-1.125 1.125-2.9727 1.125-4.0977 0l-8.4844-8.4844c-1.125-1.1211-1.125-2.9727 0-4.0938zm0 0c1.125-1.125 2.9727-1.125 4.0977 0l8.4844 8.4844c1.125 1.1211 1.125 2.9727 0 4.0938l-1.5938 1.5938c-1.125 1.125-2.9727 1.125-4.0977 0l-8.4844-8.4844c-1.125-1.1211-1.125-2.9727 0-4.0938zm0 0c1.125-1.125 2.9727-1.125 4.0977 0l8.4844 8.4844c1.125 1.1211 1.125 2.9727 0 4.0938l-1.5938 1.5938c-1.125 1.125-2.9727 1.125-4.0977 0l-8.4844-8.4844c-1.125-1.1211-1.125-2.9727 0-4.0938zm0 0c1.125-1.125 2.9727-1.125 4.0977 0l8.4844 8.4844c1.125 1.1211 1.125 2.9727 0 4.0938l-1.5938 1.5938c-1.125 1.125-2.9727 1.125-4.0977 0l-8.4844-8.4844c-1.125-1.1211-1.125-2.9727 0-4.0938z" fill="#241f31" fill-opacity=".6" stop-color="#000000" style="-inkscape-stroke:none;font-variation-settings:normal"/>
</svg>
