<?xml version="1.0" encoding="UTF-8"?>
<svg height="16px" viewBox="0 0 16 16" width="16px" xmlns="http://www.w3.org/2000/svg" xmlns:xlink="http://www.w3.org/1999/xlink">
    <filter id="a" height="100%" width="100%" x="0%" y="0%">
        <feColorMatrix color-interpolation-filters="sRGB" values="0 0 0 0 1 0 0 0 0 1 0 0 0 0 1 0 0 0 1 0"/>
    </filter>
    <mask id="b">
        <g filter="url(#a)">
            <rect fill-opacity="0.344804" height="19.2" width="19.2" x="-1.6" y="-1.6"/>
        </g>
    </mask>
    <clipPath id="c">
        <rect height="152" width="192"/>
    </clipPath>
    <path d="m 2.511719 0.914062 c 1.125 -1.125 2.972656 -1.125 4.097656 0 l 8.484375 8.484376 c 1.125 1.121093 1.125 2.972656 0 4.09375 l -1.59375 1.59375 c -1.125 1.125 -2.972656 1.125 -4.097656 0 l -8.484375 -8.484376 c -1.125 -1.121093 -1.125 -2.972656 0 -4.09375 z m 0 0" fill="#241f31"/>
    <g mask="url(#b)">
        <g clip-path="url(#c)" transform="matrix(1 0 0 1 -168 -16)">
            <path d="m 84.769531 97.371094 c -7.03125 7.03125 -18.425781 7.03125 -25.457031 0 c -7.027344 -7.027344 -7.027344 -18.425782 0 -25.453125 c 7.03125 -7.03125 18.425781 -7.03125 25.457031 0 c 7.027344 7.027343 7.027344 18.425781 0 25.453125 z m 0 0" fill="#b5835a"/>
        </g>
    </g>
    <path d="m 13.476562 0.921875 c -1.148437 -1.148437 -3.042968 -1.148437 -4.191406 0 l -8.386718 8.386719 c -1.148438 1.148437 -1.148438 3.042968 0 4.191406 l 1.574218 1.578125 c 1.152344 1.148437 3.046875 1.148437 4.195313 0 l 8.386719 -8.386719 c 1.148437 -1.148437 1.148437 -3.042968 0 -4.195312 z m -1.398437 1.398437 l 1.578125 1.574219 c 0.398438 0.398438 0.398438 1 0 1.398438 l -8.386719 8.386719 c -0.398437 0.398437 -1 0.398437 -1.398437 0 l -1.574219 -1.578126 c -0.398437 -0.398437 -0.398437 -0.996093 0 -1.394531 l 8.386719 -8.386719 c 0.398437 -0.398437 0.996094 -0.398437 1.394531 0 z m 0 0" fill="#241f31"/>
</svg>
