<?xml version="1.0" encoding="UTF-8"?>
<svg height="128px" viewBox="0 0 128 128" width="128px" xmlns="http://www.w3.org/2000/svg" xmlns:xlink="http://www.w3.org/1999/xlink">
    <filter id="a" height="100%" width="100%" x="0%" y="0%">
        <feColorMatrix color-interpolation-filters="sRGB" values="0 0 0 0 1 0 0 0 0 1 0 0 0 0 1 0 0 0 1 0"/>
    </filter>
    <linearGradient id="b" gradientUnits="userSpaceOnUse">
        <stop offset="0" stop-color="#986a44"/>
        <stop offset="0.557739" stop-color="#986a44"/>
        <stop offset="0.662139" stop-color="#c8a182"/>
        <stop offset="0.763067" stop-color="#986a44"/>
        <stop offset="1" stop-color="#986a44"/>
    </linearGradient>
    <linearGradient id="c" gradientTransform="matrix(0.707107 0.707107 0.707107 -0.707107 198.391915 -127.931023)" x1="29.496105" x2="69.643059" xlink:href="#b" y1="-292.000336" y2="-271.867462"/>
    <linearGradient id="d" gradientTransform="matrix(0.707107 0.707107 -0.707107 0.707107 198.391915 -127.931023)" gradientUnits="userSpaceOnUse" x1="62.000015" x2="62.000015" y1="185.417755" y2="284">
        <stop offset="0" stop-color="#cdab8f"/>
        <stop offset="0.296421" stop-color="#cdab8f"/>
        <stop offset="0.36937" stop-color="#d8c0ae"/>
        <stop offset="0.639459" stop-color="#cdab8f"/>
        <stop offset="0.731863" stop-color="#c49978"/>
        <stop offset="1" stop-color="#cdab8f"/>
    </linearGradient>
    <mask id="e">
        <g filter="url(#a)">
            <rect fill-opacity="0.344804" height="153.6" width="153.6" x="-12.8" y="-12.8"/>
        </g>
    </mask>
    <clipPath id="f">
        <rect height="152" width="192"/>
    </clipPath>
    <linearGradient id="g" gradientTransform="matrix(-0.707107 0.707107 -0.707107 -0.707107 -70.29879 -127.795324)" x1="29.496105" x2="69.643059" xlink:href="#b" y1="-292.000336" y2="-271.867462"/>
    <linearGradient id="h" gradientTransform="matrix(-0.707107 0.707107 0.707107 0.707107 -70.298786 -127.795319)" gradientUnits="userSpaceOnUse" x1="62.000015" x2="62.000015" y1="185.417755" y2="284">
        <stop offset="0" stop-color="#cdab8f"/>
        <stop offset="0.296421" stop-color="#cdab8f"/>
        <stop offset="0.36937" stop-color="#cdab8f"/>
        <stop offset="0.639459" stop-color="#cdab8f"/>
        <stop offset="0.731863" stop-color="#c9a284"/>
        <stop offset="1" stop-color="#cdab8f"/>
    </linearGradient>
    <linearGradient id="i" gradientUnits="userSpaceOnUse" x1="40.177176" x2="40.177176" y1="33.124268" y2="38.010468">
        <stop offset="0" stop-color="#ffffff"/>
        <stop offset="1" stop-color="#e9dacd"/>
    </linearGradient>
    <linearGradient id="j" gradientTransform="matrix(-0.756663 0.756663 -0.756663 -0.756663 -4.5563 -188.894418)" gradientUnits="userSpaceOnUse" x1="121.622368" x2="121.622368" y1="-230.516815" y2="-233.345245">
        <stop offset="0" stop-color="#986a44" stop-opacity="0.32549"/>
        <stop offset="1" stop-color="#986a44" stop-opacity="0"/>
    </linearGradient>
    <linearGradient id="k" gradientUnits="userSpaceOnUse">
        <stop offset="0" stop-color="#e9dacd" stop-opacity="0.145098"/>
        <stop offset="1" stop-color="#e9dacd" stop-opacity="0"/>
    </linearGradient>
    <linearGradient id="l" gradientTransform="matrix(0.707107 -0.707107 0.707107 0.707107 0 -172)" x1="-122.329483" x2="-122.329483" xlink:href="#k" y1="201.525436" y2="200.111221"/>
    <linearGradient id="m" gradientTransform="matrix(0.756663 -0.756663 0.756663 0.756663 -4.5563 -188.894418)" x1="-122.329483" x2="-122.329483" xlink:href="#k" y1="201.525436" y2="200.111221"/>
    <path d="m 20.347656 102.730469 l 10.6875 10.691406 c 4.859375 4.855469 12.738282 4.855469 17.59375 0 l 58.773438 -58.773437 c 4.859375 -4.859376 4.859375 -12.738282 0 -17.597657 l -10.6875 -10.6875 c -4.859375 -4.859375 -12.738282 -4.859375 -17.597656 0 l -58.769532 58.773438 c -4.859375 4.859375 -4.859375 12.734375 0 17.59375 z m 0 0" fill="url(#c)"/>
    <path d="m 96.613281 24.851562 l 11.222657 11.21875 c 4.710937 4.714844 4.695312 12.371094 -0.039063 17.105469 l -59.226563 59.222657 c -4.734374 4.734374 -12.390624 4.753906 -17.101562 0.039062 l -11.222656 -11.21875 c -4.710938 -4.710938 -4.695313 -12.371094 0.039062 -17.101562 l 59.226563 -59.226563 c 4.734375 -4.734375 12.390625 -4.753906 17.101562 -0.039063 z m 0 0" fill="url(#d)"/>
    <g fill="#e9dacd">
        <path d="m 90.910156 33.289062 c -0.78125 0.78125 -2.046875 0.78125 -2.828125 0 s -0.78125 -2.046874 0 -2.828124 s 2.046875 -0.78125 2.828125 0 s 0.78125 2.046874 0 2.828124 z m 0 0"/>
        <path d="m 85.253906 38.945312 c -0.78125 0.78125 -2.046875 0.78125 -2.828125 0 s -0.78125 -2.046874 0 -2.828124 s 2.046875 -0.78125 2.828125 0 s 0.78125 2.046874 0 2.828124 z m 0 0"/>
        <path d="m 96.570312 38.945312 c -0.78125 0.78125 -2.050781 0.78125 -2.832031 0 c -0.777343 -0.78125 -0.777343 -2.046874 0 -2.828124 c 0.78125 -0.78125 2.050781 -0.78125 2.832031 0 c 0.777344 0.78125 0.777344 2.046874 0 2.828124 z m 0 0"/>
        <path d="m 90.910156 44.601562 c -0.78125 0.78125 -2.046875 0.78125 -2.828125 0 s -0.78125 -2.046874 0 -2.828124 s 2.046875 -0.78125 2.828125 0 s 0.78125 2.046874 0 2.828124 z m 0 0"/>
        <path d="m 102.226562 44.601562 c -0.78125 0.78125 -2.046874 0.78125 -2.828124 0 s -0.78125 -2.046874 0 -2.828124 s 2.046874 -0.78125 2.828124 0 s 0.78125 2.046874 0 2.828124 z m 0 0"/>
        <path d="m 96.570312 50.261719 c -0.78125 0.777343 -2.050781 0.777343 -2.832031 0 c -0.777343 -0.78125 -0.777343 -2.050781 0 -2.832031 c 0.78125 -0.777344 2.050781 -0.777344 2.832031 0 c 0.777344 0.78125 0.777344 2.050781 0 2.832031 z m 0 0"/>
        <path d="m 34.34375 89.859375 c -0.78125 0.78125 -2.046875 0.78125 -2.828125 0 s -0.78125 -2.050781 0 -2.828125 c 0.78125 -0.78125 2.046875 -0.78125 2.828125 0 c 0.78125 0.777344 0.78125 2.046875 0 2.828125 z m 0 0"/>
        <path d="m 28.6875 95.515625 c -0.78125 0.78125 -2.046875 0.78125 -2.828125 0 s -0.78125 -2.046875 0 -2.828125 s 2.046875 -0.78125 2.828125 0 s 0.78125 2.046875 0 2.828125 z m 0 0"/>
        <path d="m 40 95.515625 c -0.78125 0.78125 -2.046875 0.78125 -2.828125 0 s -0.78125 -2.046875 0 -2.828125 s 2.046875 -0.78125 2.828125 0 s 0.78125 2.046875 0 2.828125 z m 0 0"/>
        <path d="m 34.34375 101.171875 c -0.78125 0.78125 -2.046875 0.78125 -2.828125 0 s -0.78125 -2.046875 0 -2.828125 s 2.046875 -0.78125 2.828125 0 s 0.78125 2.046875 0 2.828125 z m 0 0"/>
        <path d="m 45.65625 101.171875 c -0.78125 0.78125 -2.046875 0.78125 -2.828125 0 s -0.78125 -2.046875 0 -2.828125 s 2.046875 -0.78125 2.828125 0 s 0.78125 2.046875 0 2.828125 z m 0 0"/>
        <path d="m 40 106.828125 c -0.78125 0.78125 -2.046875 0.78125 -2.828125 0 s -0.78125 -2.046875 0 -2.828125 s 2.046875 -0.78125 2.828125 0 s 0.78125 2.046875 0 2.828125 z m 0 0"/>
    </g>
    <g mask="url(#e)">
        <g clip-path="url(#f)" transform="matrix(1 0 0 1 -8 -16)">
            <path d="m 84.769531 97.371094 c -7.03125 7.03125 -18.425781 7.03125 -25.457031 0 c -7.027344 -7.027344 -7.027344 -18.425782 0 -25.453125 c 7.03125 -7.03125 18.425781 -7.03125 25.457031 0 c 7.027344 7.027343 7.027344 18.425781 0 25.453125 z m 0 0" fill="#b5835a"/>
        </g>
    </g>
    <path d="m 70.078125 59.78125 l -5 5 c -0.382813 0.378906 -1 0.378906 -1.382813 0 l -5 -5 c -0.378906 -0.382812 -1 -0.382812 -1.378906 0 l -2.136718 2.136719 c -0.382813 0.382812 -0.382813 1 0 1.382812 l 4.996093 5 c 0.382813 0.378907 0.382813 1 0 1.378907 l -4.996093 5 c -0.382813 0.382812 -0.382813 1 0 1.382812 l 2.136718 2.136719 c 0.378906 0.382812 1 0.382812 1.378906 0 l 5 -5 c 0.382813 -0.382813 1 -0.382813 1.382813 0 l 5 5 c 0.378906 0.382812 1 0.382812 1.378906 0 l 2.140625 -2.136719 c 0.378906 -0.382812 0.378906 -1 0 -1.382812 l -5 -5 c -0.382812 -0.378907 -0.382812 -1 0 -1.378907 l 5 -5 c 0.378906 -0.382812 0.378906 -1 0 -1.382812 l -2.140625 -2.136719 c -0.378906 -0.382812 -1 -0.382812 -1.378906 0 z m 0 0" fill="#63452c" fill-opacity="0.247059"/>
    <path d="m 22.753906 35.125 l -2.0625 2.0625 c -4.875 4.875 -4.875 12.722656 0 17.59375 l 58.769532 58.773438 c 4.875 4.875 12.722656 4.875 17.597656 0 l 10.6875 -10.6875 c 4.875 -4.875 4.875 -12.722657 0 -17.597657 l -50.144532 -50.144531 z m 0 0" fill="url(#g)"/>
    <path d="m 23.339844 33.125 l -3.082032 3.082031 c -4.726562 4.726563 -4.707031 12.355469 0.039063 17.101563 l 59.226563 59.226562 c 4.746093 4.75 12.375 4.765625 17.101562 0.039063 l 11.222656 -11.21875 c 4.726563 -4.726563 4.707032 -12.355469 -0.039062 -17.105469 l -51.128906 -51.125 z m 0 0" fill="url(#h)"/>
    <path d="m 37.179688 44.738281 c 0.78125 0.78125 2.050781 0.78125 2.832031 0 c 0.777343 -0.78125 0.777343 -2.046875 0 -2.828125 c -0.78125 -0.78125 -2.050781 -0.78125 -2.832031 0 c -0.777344 0.78125 -0.777344 2.046875 0 2.828125 z m 0 0" fill="#e9dacd"/>
    <path d="m 23.339844 33.125 h 33.339844 l 0.800781 0.796875 l -8.898438 8.601563 c -4.828125 4.667968 -12.375 4.765624 -17.101562 0.039062 z m 0 0" fill-opacity="0.192157"/>
    <path d="m 23.339844 33.125 h 33.339844 l -8.097657 8.160156 c -4.730469 4.769532 -12.375 4.765625 -17.101562 0.039063 z m 0 0" fill="url(#i)"/>
    <path d="m 25.867188 44.738281 c 0.78125 0.78125 2.046874 0.78125 2.828124 0 s 0.78125 -2.046875 0 -2.828125 s -2.046874 -0.78125 -2.828124 0 s -0.78125 2.046875 0 2.828125 z m 0 0" fill="#e9dacd"/>
    <path d="m 31.523438 50.394531 c 0.78125 0.78125 2.046874 0.78125 2.828124 0 s 0.78125 -2.046875 0 -2.828125 s -2.046874 -0.78125 -2.828124 0 s -0.78125 2.046875 0 2.828125 z m 0 0" fill="#e9dacd"/>
    <path d="m 93.75 89.992188 c 0.78125 0.78125 2.046875 0.78125 2.828125 0 s 0.78125 -2.046876 0 -2.828126 s -2.046875 -0.78125 -2.828125 0 s -0.78125 2.046876 0 2.828126 z m 0 0" fill="#e9dacd"/>
    <path d="m 99.40625 95.652344 c 0.78125 0.777344 2.046875 0.777344 2.828125 0 c 0.78125 -0.78125 0.78125 -2.050782 0 -2.832032 s -2.046875 -0.78125 -2.828125 0 s -0.78125 2.050782 0 2.832032 z m 0 0" fill="#e9dacd"/>
    <path d="m 88.09375 95.652344 c 0.78125 0.777344 2.046875 0.777344 2.828125 0 c 0.78125 -0.78125 0.78125 -2.050782 0 -2.832032 s -2.046875 -0.78125 -2.828125 0 s -0.78125 2.050782 0 2.832032 z m 0 0" fill="#e9dacd"/>
    <path d="m 93.75 101.308594 c 0.78125 0.78125 2.046875 0.78125 2.828125 0 s 0.78125 -2.046875 0 -2.828125 s -2.046875 -0.78125 -2.828125 0 s -0.78125 2.046875 0 2.828125 z m 0 0" fill="#e9dacd"/>
    <path d="m 82.4375 101.308594 c 0.78125 0.78125 2.046875 0.78125 2.828125 0 s 0.78125 -2.046875 0 -2.828125 s -2.046875 -0.78125 -2.828125 0 s -0.78125 2.046875 0 2.828125 z m 0 0" fill="#e9dacd"/>
    <path d="m 88.09375 106.964844 c 0.78125 0.78125 2.046875 0.78125 2.828125 0 s 0.78125 -2.046875 0 -2.828125 s -2.046875 -0.78125 -2.828125 0 s -0.78125 2.046875 0 2.828125 z m 0 0" fill="#e9dacd"/>
    <path d="m 84.15625 75.605469 l -12.546875 12.546875 c -2.632813 2.628906 -6.894531 2.628906 -9.527344 0 l -11.917969 -11.917969 c -2.628906 -2.632813 -2.628906 -6.894531 0 -9.527344 l 12.546876 -12.546875 c 2.632812 -2.628906 6.894531 -2.628906 9.527343 0 l 11.917969 11.917969 c 2.628906 2.632813 2.628906 6.894531 0 9.527344 z m 0 0" fill="url(#j)"/>
    <path d="m 47.125 62.953125 l 11.726562 -11.722656 c 2.457032 -2.460938 6.441407 -2.460938 8.902344 0 l 11.136719 11.136719 c 2.457031 2.457031 2.457031 6.441406 0 8.902343 l -11.726563 11.722657 c -2.457031 2.457031 -6.441406 2.457031 -8.902343 0 l -11.136719 -11.136719 c -2.457031 -2.457031 -2.457031 -6.445313 0 -8.902344 z m 0 0" fill="url(#l)"/>
    <path d="m 49.257812 65.039062 l 11.726563 -11.722656 c 2.457031 -2.460937 6.441406 -2.460937 8.902344 0 l 11.136719 11.136719 c 2.457031 2.457031 2.457031 6.441406 0 8.898437 l -11.726563 11.726563 c -2.457031 2.457031 -6.445313 2.457031 -8.902344 0 l -11.136719 -11.136719 c -2.457031 -2.457031 -2.457031 -6.445312 0 -8.902344 z m 0 0" fill="#c9a284"/>
    <path d="m 45.871094 62.523438 l 12.546875 -12.542969 c 2.632812 -2.632813 6.894531 -2.632813 9.527343 0 l 11.917969 11.914062 c 2.628907 2.632813 2.628907 6.898438 0 9.527344 l -12.546875 12.546875 c -2.632812 2.628906 -6.894531 2.628906 -9.527344 0 l -11.917968 -11.917969 c -2.628906 -2.628906 -2.628906 -6.894531 0 -9.527343 z m 0 0" fill="url(#m)"/>
</svg>
